<?xml version="1.0" encoding="UTF-8"?>
<svg id="Livello_1" xmlns="http://www.w3.org/2000/svg" version="1.1" viewBox="0 0 354.5 270.5">
  <!-- Generator: Adobe Illustrator 29.8.2, SVG Export Plug-In . SVG Version: 2.1.1 Build 3)  -->
  <defs>
    <style>
      .st0 {
        fill: #1d1d1b;
      }

      .st1 {
        fill: #fcbe0c;
      }
    </style>
  </defs>
  <g>
    <path class="st0" d="M162.5,45c0-8.9,7.1-16.2,16-16.2s15.7,7.4,15.7,16.2-6.9,16-15.7,16-16-7.1-16-16Z"/>
    <rect class="st0" x="166.5" y="84.9" width="24.4" height="120.5"/>
    <path class="st0" d="M342.8,141.4c0-33.7-22.6-60-59-60s-61,28.3-61,63,27.3,63.7,63.9,63.7,43-11.1,53.6-31.7l-18.7-9.6c-7.1,13.3-20.4,19.7-35.2,19.7-21.6,0-37.4-14.5-40.1-35.2h96.4v-9.8ZM247.4,135.5c2.5-17.9,15.7-32.2,36.1-32.2s33.9,13,34.9,32.2h-71.1,0Z"/>
  </g>
  <g>
    <path class="st1" d="M142.3,130.8h-63.9v-63.2c4,0,28.8.2,47.4,20.4,16,17.4,16.6,37.9,16.6,42.8Z"/>
    <path class="st0" d="M113,186.8c-17.4,16-37.9,16.6-42.8,16.6-15.3,0-29.2-5.1-40.1-13.5v70.8H5.7v-120.8c0-34.7,28.3-63,64.4-63v62.5h63.2c0,4-.2,28.8-20.4,47.4Z"/>
  </g>
</svg>