<?xml version="1.0" encoding="UTF-8"?>
<svg id="Livello_2" data-name="Livello 2" xmlns="http://www.w3.org/2000/svg" viewBox="0 0 354.55 270.55">
  <defs>
    <style>
      .cls-1 {
        fill: #fff;
      }

      .cls-2 {
        fill: #fcbe0c;
      }
    </style>
  </defs>
  <g id="Livello_1-2" data-name="Livello 1">
    <g>
      <g>
        <path class="cls-1" d="M174.27,45.01c0-8.85,7.13-16.23,15.98-16.23s15.74,7.38,15.74,16.23-6.89,15.99-15.74,15.99-15.98-7.13-15.98-15.99Z"/>
        <rect class="cls-1" x="178.21" y="84.86" width="24.35" height="120.51"/>
        <path class="cls-1" d="M354.55,141.42c0-33.69-22.63-60.01-59.03-60.01s-60.99,28.28-60.99,62.96c0,37.14,27.3,63.7,63.95,63.7,23.61,0,43.04-11.07,53.61-31.73l-18.69-9.59c-7.13,13.28-20.41,19.68-35.17,19.68-21.64,0-37.38-14.51-40.09-35.17h96.41v-9.84ZM259.13,135.52c2.46-17.95,15.74-32.22,36.15-32.22s33.94,13.03,34.92,32.22h-71.08Z"/>
      </g>
      <g>
        <path class="cls-2" d="M154.01,130.76h-63.95v-63.21c4.02-.02,28.82.21,47.37,20.39,15.99,17.4,16.56,37.94,16.58,42.82Z"/>
        <path class="cls-1" d="M124.72,186.82c-17.4,15.99-37.94,16.56-42.82,16.58-15.33,0-29.19-5.06-40.09-13.53v70.83h-24.35v-120.76c0-34.68,28.28-62.96,64.44-62.96v62.47h63.21c.02,4.02-.2,28.82-20.39,47.37Z"/>
      </g>
    </g>
  </g>
</svg>